<svg width="33" height="33" viewBox="0 0 33 33" fill="none" xmlns="http://www.w3.org/2000/svg">
<path d="M23.1666 4.78621C23.5168 4.43602 23.9326 4.15823 24.3901 3.96871C24.8477 3.77919 25.338 3.68164 25.8333 3.68164C26.3285 3.68164 26.8189 3.77919 27.2765 3.96871C27.734 4.15823 28.1498 4.43602 28.5 4.78621C28.8502 5.1364 29.1279 5.55214 29.3175 6.00969C29.507 6.46723 29.6045 6.95763 29.6045 7.45288C29.6045 7.94812 29.507 8.43852 29.3175 8.89607C29.1279 9.35361 28.8502 9.76935 28.5 10.1195L10.5 28.1195L3.16663 30.1195L5.16663 22.7862L23.1666 4.78621Z" stroke="#212121" stroke-opacity="0.8" stroke-width="2" stroke-linecap="round" stroke-linejoin="round"/>
</svg>
