<svg width="33" height="33" viewBox="0 0 33 33" fill="none" xmlns="http://www.w3.org/2000/svg">
<path d="M19.1667 3.45117H8.50004C7.7928 3.45117 7.11452 3.73212 6.61442 4.23222C6.11433 4.73232 5.83337 5.41059 5.83337 6.11784V27.4512C5.83337 28.1584 6.11433 28.8367 6.61442 29.3368C7.11452 29.8369 7.7928 30.1178 8.50004 30.1178H24.5C25.2073 30.1178 25.8856 29.8369 26.3857 29.3368C26.8858 28.8367 27.1667 28.1584 27.1667 27.4512V11.4512L19.1667 3.45117Z" stroke="#212121" stroke-opacity="0.8" stroke-width="2" stroke-linecap="round" stroke-linejoin="round"/>
<path d="M19.1666 3.45117V11.4512H27.1666" stroke="#212121" stroke-opacity="0.8" stroke-width="2" stroke-linecap="round" stroke-linejoin="round"/>
<path d="M21.8333 18.1191H11.1666" stroke="#212121" stroke-opacity="0.8" stroke-width="2" stroke-linecap="round" stroke-linejoin="round"/>
<path d="M21.8333 23.4512H11.1666" stroke="#212121" stroke-opacity="0.8" stroke-width="2" stroke-linecap="round" stroke-linejoin="round"/>
<path d="M13.8333 12.7852H12.5H11.1666" stroke="#212121" stroke-opacity="0.8" stroke-width="2" stroke-linecap="round" stroke-linejoin="round"/>
</svg>
