<svg width="901" height="230" viewBox="0 0 901 230" fill="none" xmlns="http://www.w3.org/2000/svg">
<path d="M112.5 202.45C89.6533 202.45 70.18 194.707 54.08 179.22C38.1333 163.733 30.16 143.187 30.16 117.58C30.16 92.1267 38.2867 71.58 54.54 55.94C70.7933 40.3 90.0367 32.48 112.27 32.48C131.897 32.48 147.997 37.4633 160.57 47.43C173.297 57.3967 181.653 70.0467 185.64 85.38L159.65 94.12C157.043 83.54 151.753 74.9533 143.78 68.36C135.807 61.7667 125.303 58.47 112.27 58.47C97.7033 58.47 85.0533 63.6833 74.32 74.11C63.74 84.3833 58.45 98.8733 58.45 117.58C58.45 135.827 63.74 150.163 74.32 160.59C84.9 170.863 97.6267 176 112.5 176C125.227 176 135.73 172.55 144.01 165.65C152.29 158.75 157.963 150.24 161.03 140.12L186.33 148.4C182.343 163.58 173.91 176.383 161.03 186.81C148.303 197.237 132.127 202.45 112.5 202.45ZM233.897 199H207.447V86.99H233.897V199ZM208.367 59.85C204.994 56.4767 203.307 52.4133 203.307 47.66C203.307 42.9067 204.994 38.8433 208.367 35.47C211.74 31.9433 215.804 30.18 220.557 30.18C225.464 30.18 229.604 31.8667 232.977 35.24C236.35 38.6133 238.037 42.7533 238.037 47.66C238.037 52.4133 236.35 56.4767 232.977 59.85C229.604 63.2233 225.464 64.91 220.557 64.91C215.804 64.91 211.74 63.2233 208.367 59.85ZM329.266 86.3V113.44C326.199 112.98 323.286 112.75 320.526 112.75C300.439 112.75 290.396 123.713 290.396 145.64V199H263.716V86.99H289.706V104.93C292.313 98.95 296.529 94.2733 302.356 90.9C308.183 87.3733 314.776 85.61 322.136 85.61C324.589 85.61 326.966 85.84 329.266 86.3ZM394.575 108.15C385.989 108.15 378.705 111.293 372.725 117.58C366.745 123.713 363.755 132.147 363.755 142.88C363.755 153.767 366.745 162.353 372.725 168.64C378.859 174.927 386.295 178.07 395.035 178.07C402.855 178.07 409.065 176 413.665 171.86C418.419 167.567 421.562 162.737 423.095 157.37L446.555 165.88C443.489 175.847 437.509 184.433 428.615 191.64C419.875 198.847 408.682 202.45 395.035 202.45C378.629 202.45 364.829 196.777 353.635 185.43C342.595 174.083 337.075 159.9 337.075 142.88C337.075 125.707 342.519 111.523 353.405 100.33C364.445 89.1367 378.092 83.54 394.345 83.54C408.299 83.54 419.645 87.1433 428.385 94.35C437.279 101.557 443.029 110.22 445.635 120.34L421.715 129.08C420.182 123.253 417.192 118.347 412.745 114.36C408.452 110.22 402.395 108.15 394.575 108.15ZM536.987 186.58C534.38 191.487 530.087 195.32 524.107 198.08C518.28 200.84 511.993 202.22 505.247 202.22C492.213 202.22 481.863 198.003 474.197 189.57C466.683 181.137 462.927 170.48 462.927 157.6V86.99H489.607V152.77C489.607 160.283 491.447 166.417 495.127 171.17C498.807 175.923 504.48 178.3 512.147 178.3C519.66 178.3 525.41 176 529.397 171.4C533.537 166.8 535.607 160.743 535.607 153.23V86.99H562.287V178.53C562.287 185.277 562.67 192.1 563.437 199H537.907C537.293 195.627 536.987 191.487 536.987 186.58ZM618.901 199H592.221V32.48H618.901V199ZM641.365 168.64C641.365 159.133 644.432 151.543 650.565 145.87C656.852 140.043 665.055 136.363 675.175 134.83L703.925 130.46C709.445 129.693 712.205 127.01 712.205 122.41C712.205 117.35 710.442 113.287 706.915 110.22C703.389 107 698.099 105.39 691.045 105.39C684.299 105.39 678.932 107.307 674.945 111.14C670.959 114.82 668.659 119.65 668.045 125.63L643.665 120.11C644.739 109.99 649.569 101.403 658.155 94.35C666.742 87.1433 677.629 83.54 690.815 83.54C707.069 83.54 719.029 87.45 726.695 95.27C734.515 103.09 738.425 113.133 738.425 125.4V181.06C738.425 188.42 738.885 194.4 739.805 199H714.965C714.199 196.7 713.815 191.947 713.815 184.74C706.455 196.547 694.955 202.45 679.315 202.45C667.969 202.45 658.769 199.153 651.715 192.56C644.815 185.813 641.365 177.84 641.365 168.64ZM684.375 181.52C692.655 181.52 699.325 179.297 704.385 174.85C709.599 170.25 712.205 162.813 712.205 152.54V147.48L682.995 151.85C673.029 153.537 668.045 158.597 668.045 167.03C668.045 171.017 669.502 174.467 672.415 177.38C675.329 180.14 679.315 181.52 684.375 181.52ZM831.627 86.3V113.44C828.561 112.98 825.647 112.75 822.887 112.75C802.801 112.75 792.757 123.713 792.757 145.64V199H766.077V86.99H792.067V104.93C794.674 98.95 798.891 94.2733 804.717 90.9C810.544 87.3733 817.137 85.61 824.497 85.61C826.951 85.61 829.327 85.84 831.627 86.3Z" fill="#CCCCCC"/>
<path d="M0 199H900.5" stroke="#CCCCCC"/>
<path d="M0 87H900.5" stroke="#CCCCCC"/>
</svg>
