<svg width="600" height="400" viewBox="0 0 600 400" fill="none" xmlns="http://www.w3.org/2000/svg">
<rect width="400" height="200" fill="#6482FF"/>
<rect y="200" width="200" height="200" fill="#202223"/>
<rect x="200" y="200" width="200" height="200" fill="#3A3A3A"/>
<rect x="400" y="200" width="200" height="200" fill="#121212"/>
<rect x="400" width="200" height="200" fill="white"/>
<path d="M20.32 157.776V156.312H19.024V157.776H18.16V156.312H16.84V155.448H18.16V154.152H16.84V153.288H18.16V151.824H19.024V153.288H20.32V151.824H21.184V153.288H22.504V154.152H21.184V155.448H22.504V156.312H21.184V157.776H20.32ZM20.32 154.152H19.024V155.448H20.32V154.152ZM29.1837 153.048C29.1837 152.528 29.0237 152.112 28.7037 151.8C28.3837 151.48 27.9397 151.32 27.3717 151.32C27.0997 151.32 26.8477 151.368 26.6157 151.464C26.3917 151.56 26.1957 151.7 26.0277 151.884C25.8677 152.06 25.7397 152.272 25.6437 152.52C25.5557 152.768 25.5117 153.04 25.5117 153.336V154.584H25.6557C25.8477 154.232 26.1197 153.956 26.4717 153.756C26.8317 153.556 27.2317 153.456 27.6717 153.456C28.0557 153.456 28.4117 153.52 28.7397 153.648C29.0677 153.768 29.3477 153.948 29.5797 154.188C29.8197 154.428 30.0037 154.72 30.1317 155.064C30.2677 155.4 30.3357 155.784 30.3357 156.216V156.36C30.3357 156.776 30.2597 157.156 30.1077 157.5C29.9637 157.844 29.7597 158.14 29.4957 158.388C29.2397 158.636 28.9317 158.828 28.5717 158.964C28.2197 159.1 27.8357 159.168 27.4197 159.168C27.0037 159.168 26.6157 159.1 26.2557 158.964C25.9037 158.828 25.5957 158.64 25.3317 158.4C25.0757 158.152 24.8717 157.86 24.7197 157.524C24.5757 157.18 24.5037 156.804 24.5037 156.396V153.336C24.5037 152.896 24.5797 152.496 24.7317 152.136C24.8837 151.776 25.0917 151.472 25.3557 151.224C25.6197 150.968 25.9237 150.772 26.2677 150.636C26.6197 150.5 26.9957 150.432 27.3957 150.432C27.7957 150.432 28.1677 150.492 28.5117 150.612C28.8557 150.732 29.1517 150.908 29.3997 151.14C29.6477 151.364 29.8397 151.64 29.9757 151.968C30.1197 152.288 30.1917 152.648 30.1917 153.048H29.1837ZM27.4197 158.28C27.7077 158.28 27.9677 158.236 28.1997 158.148C28.4397 158.052 28.6437 157.92 28.8117 157.752C28.9797 157.584 29.1077 157.384 29.1957 157.152C29.2837 156.92 29.3277 156.664 29.3277 156.384V156.24C29.3277 155.96 29.2797 155.704 29.1837 155.472C29.0877 155.24 28.9557 155.04 28.7877 154.872C28.6197 154.704 28.4157 154.576 28.1757 154.488C27.9437 154.392 27.6917 154.344 27.4197 154.344C27.1477 154.344 26.8957 154.392 26.6637 154.488C26.4317 154.584 26.2277 154.716 26.0517 154.884C25.8837 155.052 25.7517 155.248 25.6557 155.472C25.5597 155.696 25.5117 155.936 25.5117 156.192V156.42C25.5117 156.684 25.5557 156.932 25.6437 157.164C25.7317 157.388 25.8597 157.584 26.0277 157.752C26.1957 157.92 26.3957 158.052 26.6277 158.148C26.8677 158.236 27.1317 158.28 27.4197 158.28ZM35.0233 150.6H36.9793V156.48H38.2753V157.416H36.9793V159H35.9713V157.416H32.0833V156.024L35.0233 150.6ZM32.9473 156.336V156.48H35.9713V151.032H35.8273L32.9473 156.336ZM42.807 159.168C42.383 159.168 41.999 159.112 41.655 159C41.311 158.88 41.015 158.72 40.767 158.52C40.519 158.312 40.327 158.072 40.191 157.8C40.063 157.52 39.999 157.216 39.999 156.888V156.744C39.999 156.456 40.043 156.2 40.131 155.976C40.219 155.752 40.335 155.556 40.479 155.388C40.623 155.22 40.787 155.08 40.971 154.968C41.163 154.856 41.359 154.772 41.559 154.716V154.572C41.375 154.516 41.203 154.432 41.043 154.32C40.883 154.208 40.739 154.076 40.611 153.924C40.491 153.772 40.395 153.6 40.323 153.408C40.251 153.208 40.215 152.992 40.215 152.76V152.616C40.215 152.296 40.279 152.004 40.407 151.74C40.535 151.468 40.715 151.236 40.947 151.044C41.187 150.852 41.467 150.704 41.787 150.6C42.115 150.488 42.479 150.432 42.879 150.432H42.951C43.343 150.432 43.703 150.488 44.031 150.6C44.359 150.704 44.639 150.852 44.871 151.044C45.111 151.236 45.295 151.468 45.423 151.74C45.551 152.004 45.615 152.296 45.615 152.616V152.76C45.615 152.992 45.579 153.208 45.507 153.408C45.435 153.6 45.335 153.772 45.207 153.924C45.087 154.076 44.943 154.208 44.775 154.32C44.615 154.432 44.447 154.516 44.271 154.572V154.716C44.471 154.772 44.663 154.856 44.847 154.968C45.039 155.08 45.207 155.22 45.351 155.388C45.495 155.556 45.611 155.752 45.699 155.976C45.787 156.2 45.831 156.456 45.831 156.744V156.888C45.831 157.216 45.763 157.52 45.627 157.8C45.499 158.072 45.311 158.312 45.063 158.52C44.815 158.72 44.519 158.88 44.175 159C43.831 159.112 43.447 159.168 43.023 159.168H42.807ZM42.987 158.256C43.531 158.256 43.971 158.116 44.307 157.836C44.651 157.556 44.823 157.192 44.823 156.744V156.672C44.823 156.176 44.647 155.792 44.295 155.52C43.951 155.248 43.503 155.112 42.951 155.112H42.879C42.327 155.112 41.875 155.248 41.523 155.52C41.179 155.792 41.007 156.176 41.007 156.672V156.744C41.007 157.192 41.175 157.556 41.511 157.836C41.855 158.116 42.299 158.256 42.843 158.256H42.987ZM42.915 154.176C43.419 154.176 43.827 154.044 44.139 153.78C44.451 153.516 44.607 153.184 44.607 152.784V152.712C44.607 152.304 44.451 151.976 44.139 151.728C43.835 151.472 43.427 151.344 42.915 151.344C42.403 151.344 41.991 151.472 41.679 151.728C41.375 151.976 41.223 152.304 41.223 152.712V152.784C41.223 153.184 41.379 153.516 41.691 153.78C42.003 154.044 42.411 154.176 42.915 154.176ZM53.5186 158.064V159H47.8306V157.56C47.8306 157.176 47.8946 156.844 48.0226 156.564C48.1506 156.276 48.3306 156.032 48.5626 155.832C48.8026 155.624 49.0906 155.452 49.4266 155.316C49.7626 155.18 50.1426 155.064 50.5666 154.968C51.2786 154.808 51.7906 154.58 52.1026 154.284C52.4226 153.988 52.5826 153.624 52.5826 153.192V153.12C52.5826 152.904 52.5466 152.692 52.4746 152.484C52.4026 152.276 52.2906 152.088 52.1386 151.92C51.9866 151.752 51.7906 151.62 51.5506 151.524C51.3186 151.42 51.0386 151.368 50.7106 151.368C50.0946 151.368 49.6146 151.556 49.2706 151.932C48.9346 152.308 48.7666 152.808 48.7666 153.432V153.96H47.7586V153.36C47.7586 152.976 47.8226 152.608 47.9506 152.256C48.0786 151.904 48.2666 151.592 48.5146 151.32C48.7626 151.048 49.0706 150.832 49.4386 150.672C49.8066 150.512 50.2306 150.432 50.7106 150.432C51.1986 150.432 51.6226 150.508 51.9826 150.66C52.3426 150.804 52.6426 151 52.8826 151.248C53.1226 151.488 53.2986 151.764 53.4106 152.076C53.5306 152.38 53.5906 152.692 53.5906 153.012V153.228C53.5906 153.868 53.3906 154.416 52.9906 154.872C52.5906 155.32 51.9506 155.64 51.0706 155.832C50.3026 156 49.7386 156.224 49.3786 156.504C49.0186 156.776 48.8386 157.176 48.8386 157.704V158.064H53.5186ZM55.8783 150.6H61.0383V151.536H56.8863V154.32H60.9663V155.256H56.8863V159H55.8783V150.6ZM63.6259 150.6H68.7859V151.536H64.6339V154.32H68.7139V155.256H64.6339V159H63.6259V150.6Z" fill="#F3F3F8"/>
<path d="M420.32 177.776V176.312H419.024V177.776H418.16V176.312H416.84V175.448H418.16V174.152H416.84V173.288H418.16V171.824H419.024V173.288H420.32V171.824H421.184V173.288H422.504V174.152H421.184V175.448H422.504V176.312H421.184V177.776H420.32ZM420.32 174.152H419.024V175.448H420.32V174.152ZM424.888 170.6H430.048V171.536H425.896V174.32H429.976V175.256H425.896V179H424.888V170.6ZM432.635 170.6H437.795V171.536H433.643V174.32H437.723V175.256H433.643V179H432.635V170.6ZM440.383 170.6H445.543V171.536H441.391V174.32H445.471V175.256H441.391V179H440.383V170.6ZM448.131 170.6H453.291V171.536H449.139V174.32H453.219V175.256H449.139V179H448.131V170.6ZM455.878 170.6H461.038V171.536H456.886V174.32H460.966V175.256H456.886V179H455.878V170.6ZM463.626 170.6H468.786V171.536H464.634V174.32H468.714V175.256H464.634V179H463.626V170.6Z" fill="#121212"/>
<path d="M420.32 377.776V376.312H419.024V377.776H418.16V376.312H416.84V375.448H418.16V374.152H416.84V373.288H418.16V371.824H419.024V373.288H420.32V371.824H421.184V373.288H422.504V374.152H421.184V375.448H422.504V376.312H421.184V377.776H420.32ZM420.32 374.152H419.024V375.448H420.32V374.152ZM426.976 378.064V371.044H426.832L425.452 374.2H424.456V374.128L426.028 370.6H427.984V378.064H430.36V379H424.6V378.064H426.976ZM438.023 378.064V379H432.335V377.56C432.335 377.176 432.399 376.844 432.527 376.564C432.655 376.276 432.835 376.032 433.067 375.832C433.307 375.624 433.595 375.452 433.931 375.316C434.267 375.18 434.647 375.064 435.071 374.968C435.783 374.808 436.295 374.58 436.607 374.284C436.927 373.988 437.087 373.624 437.087 373.192V373.12C437.087 372.904 437.051 372.692 436.979 372.484C436.907 372.276 436.795 372.088 436.643 371.92C436.491 371.752 436.295 371.62 436.055 371.524C435.823 371.42 435.543 371.368 435.215 371.368C434.599 371.368 434.119 371.556 433.775 371.932C433.439 372.308 433.271 372.808 433.271 373.432V373.96H432.263V373.36C432.263 372.976 432.327 372.608 432.455 372.256C432.583 371.904 432.771 371.592 433.019 371.32C433.267 371.048 433.575 370.832 433.943 370.672C434.311 370.512 434.735 370.432 435.215 370.432C435.703 370.432 436.127 370.508 436.487 370.66C436.847 370.804 437.147 371 437.387 371.248C437.627 371.488 437.803 371.764 437.915 372.076C438.035 372.38 438.095 372.692 438.095 373.012V373.228C438.095 373.868 437.895 374.416 437.495 374.872C437.095 375.32 436.455 375.64 435.575 375.832C434.807 376 434.243 376.224 433.883 376.504C433.523 376.776 433.343 377.176 433.343 377.704V378.064H438.023ZM442.471 378.064V371.044H442.327L440.947 374.2H439.951V374.128L441.523 370.6H443.479V378.064H445.855V379H440.095V378.064H442.471ZM453.519 378.064V379H447.831V377.56C447.831 377.176 447.895 376.844 448.023 376.564C448.151 376.276 448.331 376.032 448.563 375.832C448.803 375.624 449.091 375.452 449.427 375.316C449.763 375.18 450.143 375.064 450.567 374.968C451.279 374.808 451.791 374.58 452.103 374.284C452.423 373.988 452.583 373.624 452.583 373.192V373.12C452.583 372.904 452.547 372.692 452.475 372.484C452.403 372.276 452.291 372.088 452.139 371.92C451.987 371.752 451.791 371.62 451.551 371.524C451.319 371.42 451.039 371.368 450.711 371.368C450.095 371.368 449.615 371.556 449.271 371.932C448.935 372.308 448.767 372.808 448.767 373.432V373.96H447.759V373.36C447.759 372.976 447.823 372.608 447.951 372.256C448.079 371.904 448.267 371.592 448.515 371.32C448.763 371.048 449.071 370.832 449.439 370.672C449.807 370.512 450.231 370.432 450.711 370.432C451.199 370.432 451.623 370.508 451.983 370.66C452.343 370.804 452.643 371 452.883 371.248C453.123 371.488 453.299 371.764 453.411 372.076C453.531 372.38 453.591 372.692 453.591 373.012V373.228C453.591 373.868 453.391 374.416 452.991 374.872C452.591 375.32 451.951 375.64 451.071 375.832C450.303 376 449.739 376.224 449.379 376.504C449.019 376.776 448.839 377.176 448.839 377.704V378.064H453.519ZM457.966 378.064V371.044H457.822L456.442 374.2H455.446V374.128L457.018 370.6H458.974V378.064H461.35V379H455.59V378.064H457.966ZM469.014 378.064V379H463.326V377.56C463.326 377.176 463.39 376.844 463.518 376.564C463.646 376.276 463.826 376.032 464.058 375.832C464.298 375.624 464.586 375.452 464.922 375.316C465.258 375.18 465.638 375.064 466.062 374.968C466.774 374.808 467.286 374.58 467.598 374.284C467.918 373.988 468.078 373.624 468.078 373.192V373.12C468.078 372.904 468.042 372.692 467.97 372.484C467.898 372.276 467.786 372.088 467.634 371.92C467.482 371.752 467.286 371.62 467.046 371.524C466.814 371.42 466.534 371.368 466.206 371.368C465.59 371.368 465.11 371.556 464.766 371.932C464.43 372.308 464.262 372.808 464.262 373.432V373.96H463.254V373.36C463.254 372.976 463.318 372.608 463.446 372.256C463.574 371.904 463.762 371.592 464.01 371.32C464.258 371.048 464.566 370.832 464.934 370.672C465.302 370.512 465.726 370.432 466.206 370.432C466.694 370.432 467.118 370.508 467.478 370.66C467.838 370.804 468.138 371 468.378 371.248C468.618 371.488 468.794 371.764 468.906 372.076C469.026 372.38 469.086 372.692 469.086 373.012V373.228C469.086 373.868 468.886 374.416 468.486 374.872C468.086 375.32 467.446 375.64 466.566 375.832C465.798 376 465.234 376.224 464.874 376.504C464.514 376.776 464.334 377.176 464.334 377.704V378.064H469.014Z" fill="white"/>
<path d="M220.32 377.776V376.312H219.024V377.776H218.16V376.312H216.84V375.448H218.16V374.152H216.84V373.288H218.16V371.824H219.024V373.288H220.32V371.824H221.184V373.288H222.504V374.152H221.184V375.448H222.504V376.312H221.184V377.776H220.32ZM220.32 374.152H219.024V375.448H220.32V374.152ZM226.592 374.824V373.432L229.328 371.68V371.536H224.576V370.6H230.192V372.136L227.456 373.888V374.032H227.936C228.256 374.032 228.564 374.084 228.86 374.188C229.156 374.292 229.416 374.444 229.64 374.644C229.872 374.844 230.056 375.092 230.192 375.388C230.336 375.676 230.408 376.012 230.408 376.396V376.612C230.408 376.972 230.336 377.308 230.192 377.62C230.048 377.932 229.848 378.204 229.592 378.436C229.336 378.66 229.032 378.84 228.68 378.976C228.336 379.104 227.96 379.168 227.552 379.168C227.08 379.168 226.656 379.096 226.28 378.952C225.904 378.808 225.584 378.612 225.32 378.364C225.056 378.108 224.852 377.812 224.708 377.476C224.572 377.132 224.504 376.768 224.504 376.384V375.736H225.512V376.312C225.512 376.616 225.56 376.888 225.656 377.128C225.76 377.36 225.9 377.56 226.076 377.728C226.26 377.888 226.476 378.012 226.724 378.1C226.972 378.188 227.24 378.232 227.528 378.232C227.792 378.232 228.036 378.188 228.26 378.1C228.492 378.012 228.692 377.892 228.86 377.74C229.028 377.58 229.16 377.396 229.256 377.188C229.352 376.972 229.4 376.744 229.4 376.504V376.432C229.4 375.928 229.24 375.536 228.92 375.256C228.6 374.968 228.2 374.824 227.72 374.824H226.592ZM236.967 376.912H233.367L232.755 379H231.675L234.219 370.6H236.115L238.659 379H237.579L236.967 376.912ZM235.095 371.032L233.643 375.976H236.691L235.239 371.032H235.095ZM242.087 374.824V373.432L244.823 371.68V371.536H240.071V370.6H245.687V372.136L242.951 373.888V374.032H243.431C243.751 374.032 244.059 374.084 244.355 374.188C244.651 374.292 244.911 374.444 245.135 374.644C245.367 374.844 245.551 375.092 245.687 375.388C245.831 375.676 245.903 376.012 245.903 376.396V376.612C245.903 376.972 245.831 377.308 245.687 377.62C245.543 377.932 245.343 378.204 245.087 378.436C244.831 378.66 244.527 378.84 244.175 378.976C243.831 379.104 243.455 379.168 243.047 379.168C242.575 379.168 242.151 379.096 241.775 378.952C241.399 378.808 241.079 378.612 240.815 378.364C240.551 378.108 240.347 377.812 240.203 377.476C240.067 377.132 239.999 376.768 239.999 376.384V375.736H241.007V376.312C241.007 376.616 241.055 376.888 241.151 377.128C241.255 377.36 241.395 377.56 241.571 377.728C241.755 377.888 241.971 378.012 242.219 378.1C242.467 378.188 242.735 378.232 243.023 378.232C243.287 378.232 243.531 378.188 243.755 378.1C243.987 378.012 244.187 377.892 244.355 377.74C244.523 377.58 244.655 377.396 244.751 377.188C244.847 376.972 244.895 376.744 244.895 376.504V376.432C244.895 375.928 244.735 375.536 244.415 375.256C244.095 374.968 243.695 374.824 243.215 374.824H242.087ZM252.463 376.912H248.863L248.251 379H247.171L249.715 370.6H251.611L254.155 379H253.075L252.463 376.912ZM250.591 371.032L249.139 375.976H252.187L250.735 371.032H250.591ZM257.582 374.824V373.432L260.318 371.68V371.536H255.566V370.6H261.182V372.136L258.446 373.888V374.032H258.926C259.246 374.032 259.554 374.084 259.85 374.188C260.146 374.292 260.406 374.444 260.63 374.644C260.862 374.844 261.046 375.092 261.182 375.388C261.326 375.676 261.398 376.012 261.398 376.396V376.612C261.398 376.972 261.326 377.308 261.182 377.62C261.038 377.932 260.838 378.204 260.582 378.436C260.326 378.66 260.022 378.84 259.67 378.976C259.326 379.104 258.95 379.168 258.542 379.168C258.07 379.168 257.646 379.096 257.27 378.952C256.894 378.808 256.574 378.612 256.31 378.364C256.046 378.108 255.842 377.812 255.698 377.476C255.562 377.132 255.494 376.768 255.494 376.384V375.736H256.502V376.312C256.502 376.616 256.55 376.888 256.646 377.128C256.75 377.36 256.89 377.56 257.066 377.728C257.25 377.888 257.466 378.012 257.714 378.1C257.962 378.188 258.23 378.232 258.518 378.232C258.782 378.232 259.026 378.188 259.25 378.1C259.482 378.012 259.682 377.892 259.85 377.74C260.018 377.58 260.15 377.396 260.246 377.188C260.342 376.972 260.39 376.744 260.39 376.504V376.432C260.39 375.928 260.23 375.536 259.91 375.256C259.59 374.968 259.19 374.824 258.71 374.824H257.582ZM267.958 376.912H264.358L263.746 379H262.666L265.21 370.6H267.106L269.65 379H268.57L267.958 376.912ZM266.086 371.032L264.634 375.976H267.682L266.23 371.032H266.086Z" fill="white"/>
<path d="M20.32 377.776V376.312H19.024V377.776H18.16V376.312H16.84V375.448H18.16V374.152H16.84V373.288H18.16V371.824H19.024V373.288H20.32V371.824H21.184V373.288H22.504V374.152H21.184V375.448H22.504V376.312H21.184V377.776H20.32ZM20.32 374.152H19.024V375.448H20.32V374.152ZM30.2757 378.064V379H24.5877V377.56C24.5877 377.176 24.6517 376.844 24.7797 376.564C24.9077 376.276 25.0877 376.032 25.3197 375.832C25.5597 375.624 25.8477 375.452 26.1837 375.316C26.5197 375.18 26.8997 375.064 27.3237 374.968C28.0357 374.808 28.5477 374.58 28.8597 374.284C29.1797 373.988 29.3397 373.624 29.3397 373.192V373.12C29.3397 372.904 29.3037 372.692 29.2317 372.484C29.1597 372.276 29.0477 372.088 28.8957 371.92C28.7437 371.752 28.5477 371.62 28.3077 371.524C28.0757 371.42 27.7957 371.368 27.4677 371.368C26.8517 371.368 26.3717 371.556 26.0277 371.932C25.6917 372.308 25.5237 372.808 25.5237 373.432V373.96H24.5157V373.36C24.5157 372.976 24.5797 372.608 24.7077 372.256C24.8357 371.904 25.0237 371.592 25.2717 371.32C25.5197 371.048 25.8277 370.832 26.1957 370.672C26.5637 370.512 26.9877 370.432 27.4677 370.432C27.9557 370.432 28.3797 370.508 28.7397 370.66C29.0997 370.804 29.3997 371 29.6397 371.248C29.8797 371.488 30.0557 371.764 30.1677 372.076C30.2877 372.38 30.3477 372.692 30.3477 373.012V373.228C30.3477 373.868 30.1477 374.416 29.7477 374.872C29.3477 375.32 28.7077 375.64 27.8277 375.832C27.0597 376 26.4957 376.224 26.1357 376.504C25.7757 376.776 25.5957 377.176 25.5957 377.704V378.064H30.2757ZM32.2153 373.864C32.2153 372.776 32.4753 371.932 32.9953 371.332C33.5153 370.732 34.2393 370.432 35.1673 370.432C36.0953 370.432 36.8193 370.732 37.3393 371.332C37.8593 371.932 38.1193 372.776 38.1193 373.864V375.736C38.1193 376.856 37.8593 377.708 37.3393 378.292C36.8193 378.876 36.0953 379.168 35.1673 379.168C34.2393 379.168 33.5153 378.876 32.9953 378.292C32.4753 377.708 32.2153 376.856 32.2153 375.736V373.864ZM35.1673 378.256C35.8153 378.256 36.2993 378.032 36.6193 377.584C36.9473 377.128 37.1113 376.488 37.1113 375.664V373.936C37.1113 373.552 37.0713 373.204 36.9913 372.892C36.9113 372.572 36.7873 372.3 36.6193 372.076C36.4593 371.844 36.2553 371.664 36.0073 371.536C35.7673 371.408 35.4873 371.344 35.1673 371.344C34.8393 371.344 34.5553 371.408 34.3153 371.536C34.0753 371.664 33.8713 371.844 33.7033 372.076C33.5433 372.3 33.4233 372.572 33.3433 372.892C33.2633 373.204 33.2233 373.552 33.2233 373.936V375.664C33.2233 376.488 33.3833 377.128 33.7033 377.584C34.0313 378.032 34.5193 378.256 35.1673 378.256ZM34.3993 374.8C34.3993 374.592 34.4753 374.412 34.6273 374.26C34.7793 374.108 34.9593 374.032 35.1673 374.032C35.3753 374.032 35.5553 374.108 35.7073 374.26C35.8593 374.412 35.9353 374.592 35.9353 374.8C35.9353 375.008 35.8593 375.188 35.7073 375.34C35.5553 375.492 35.3753 375.568 35.1673 375.568C34.9593 375.568 34.7793 375.492 34.6273 375.34C34.4753 375.188 34.3993 375.008 34.3993 374.8ZM45.771 378.064V379H40.083V377.56C40.083 377.176 40.147 376.844 40.275 376.564C40.403 376.276 40.583 376.032 40.815 375.832C41.055 375.624 41.343 375.452 41.679 375.316C42.015 375.18 42.395 375.064 42.819 374.968C43.531 374.808 44.043 374.58 44.355 374.284C44.675 373.988 44.835 373.624 44.835 373.192V373.12C44.835 372.904 44.799 372.692 44.727 372.484C44.655 372.276 44.543 372.088 44.391 371.92C44.239 371.752 44.043 371.62 43.803 371.524C43.571 371.42 43.291 371.368 42.963 371.368C42.347 371.368 41.867 371.556 41.523 371.932C41.187 372.308 41.019 372.808 41.019 373.432V373.96H40.011V373.36C40.011 372.976 40.075 372.608 40.203 372.256C40.331 371.904 40.519 371.592 40.767 371.32C41.015 371.048 41.323 370.832 41.691 370.672C42.059 370.512 42.483 370.432 42.963 370.432C43.451 370.432 43.875 370.508 44.235 370.66C44.595 370.804 44.895 371 45.135 371.248C45.375 371.488 45.551 371.764 45.663 372.076C45.783 372.38 45.843 372.692 45.843 373.012V373.228C45.843 373.868 45.643 374.416 45.243 374.872C44.843 375.32 44.203 375.64 43.323 375.832C42.555 376 41.991 376.224 41.631 376.504C41.271 376.776 41.091 377.176 41.091 377.704V378.064H45.771ZM53.5186 378.064V379H47.8306V377.56C47.8306 377.176 47.8946 376.844 48.0226 376.564C48.1506 376.276 48.3306 376.032 48.5626 375.832C48.8026 375.624 49.0906 375.452 49.4266 375.316C49.7626 375.18 50.1426 375.064 50.5666 374.968C51.2786 374.808 51.7906 374.58 52.1026 374.284C52.4226 373.988 52.5826 373.624 52.5826 373.192V373.12C52.5826 372.904 52.5466 372.692 52.4746 372.484C52.4026 372.276 52.2906 372.088 52.1386 371.92C51.9866 371.752 51.7906 371.62 51.5506 371.524C51.3186 371.42 51.0386 371.368 50.7106 371.368C50.0946 371.368 49.6146 371.556 49.2706 371.932C48.9346 372.308 48.7666 372.808 48.7666 373.432V373.96H47.7586V373.36C47.7586 372.976 47.8226 372.608 47.9506 372.256C48.0786 371.904 48.2666 371.592 48.5146 371.32C48.7626 371.048 49.0706 370.832 49.4386 370.672C49.8066 370.512 50.2306 370.432 50.7106 370.432C51.1986 370.432 51.6226 370.508 51.9826 370.66C52.3426 370.804 52.6426 371 52.8826 371.248C53.1226 371.488 53.2986 371.764 53.4106 372.076C53.5306 372.38 53.5906 372.692 53.5906 373.012V373.228C53.5906 373.868 53.3906 374.416 52.9906 374.872C52.5906 375.32 51.9506 375.64 51.0706 375.832C50.3026 376 49.7386 376.224 49.3786 376.504C49.0186 376.776 48.8386 377.176 48.8386 377.704V378.064H53.5186ZM61.2663 378.064V379H55.5783V377.56C55.5783 377.176 55.6423 376.844 55.7703 376.564C55.8983 376.276 56.0783 376.032 56.3103 375.832C56.5503 375.624 56.8383 375.452 57.1743 375.316C57.5103 375.18 57.8903 375.064 58.3143 374.968C59.0263 374.808 59.5383 374.58 59.8503 374.284C60.1703 373.988 60.3303 373.624 60.3303 373.192V373.12C60.3303 372.904 60.2943 372.692 60.2223 372.484C60.1503 372.276 60.0383 372.088 59.8863 371.92C59.7343 371.752 59.5383 371.62 59.2983 371.524C59.0663 371.42 58.7863 371.368 58.4583 371.368C57.8423 371.368 57.3623 371.556 57.0183 371.932C56.6823 372.308 56.5143 372.808 56.5143 373.432V373.96H55.5063V373.36C55.5063 372.976 55.5703 372.608 55.6983 372.256C55.8263 371.904 56.0143 371.592 56.2623 371.32C56.5103 371.048 56.8183 370.832 57.1863 370.672C57.5543 370.512 57.9783 370.432 58.4583 370.432C58.9463 370.432 59.3703 370.508 59.7303 370.66C60.0903 370.804 60.3903 371 60.6303 371.248C60.8703 371.488 61.0463 371.764 61.1583 372.076C61.2783 372.38 61.3383 372.692 61.3383 373.012V373.228C61.3383 373.868 61.1383 374.416 60.7383 374.872C60.3383 375.32 59.6983 375.64 58.8183 375.832C58.0503 376 57.4863 376.224 57.1263 376.504C56.7663 376.776 56.5863 377.176 56.5863 377.704V378.064H61.2663ZM65.3299 374.824V373.432L68.0659 371.68V371.536H63.3139V370.6H68.9299V372.136L66.1939 373.888V374.032H66.6739C66.9939 374.032 67.3019 374.084 67.5979 374.188C67.8939 374.292 68.1539 374.444 68.3779 374.644C68.6099 374.844 68.7939 375.092 68.9299 375.388C69.0739 375.676 69.1459 376.012 69.1459 376.396V376.612C69.1459 376.972 69.0739 377.308 68.9299 377.62C68.7859 377.932 68.5859 378.204 68.3299 378.436C68.0739 378.66 67.7699 378.84 67.4179 378.976C67.0739 379.104 66.6979 379.168 66.2899 379.168C65.8179 379.168 65.3939 379.096 65.0179 378.952C64.6419 378.808 64.3219 378.612 64.0579 378.364C63.7939 378.108 63.5899 377.812 63.4459 377.476C63.3099 377.132 63.2419 376.768 63.2419 376.384V375.736H64.2499V376.312C64.2499 376.616 64.2979 376.888 64.3939 377.128C64.4979 377.36 64.6379 377.56 64.8139 377.728C64.9979 377.888 65.2139 378.012 65.4619 378.1C65.7099 378.188 65.9779 378.232 66.2659 378.232C66.5299 378.232 66.7739 378.188 66.9979 378.1C67.2299 378.012 67.4299 377.892 67.5979 377.74C67.7659 377.58 67.8979 377.396 67.9939 377.188C68.0899 376.972 68.1379 376.744 68.1379 376.504V376.432C68.1379 375.928 67.9779 375.536 67.6579 375.256C67.3379 374.968 66.9379 374.824 66.4579 374.824H65.3299Z" fill="white"/>
<path d="M18.028 175.544V179H17.02V170.6H20.02C20.452 170.6 20.828 170.664 21.148 170.792C21.468 170.912 21.732 171.076 21.94 171.284C22.156 171.492 22.316 171.736 22.42 172.016C22.532 172.288 22.588 172.576 22.588 172.88V173.24C22.588 173.544 22.532 173.836 22.42 174.116C22.316 174.396 22.156 174.644 21.94 174.86C21.724 175.068 21.456 175.236 21.136 175.364C20.816 175.484 20.444 175.544 20.02 175.544H18.028ZM18.028 174.608H19.9C21.02 174.608 21.58 174.128 21.58 173.168V172.952C21.58 172.528 21.44 172.188 21.16 171.932C20.888 171.668 20.468 171.536 19.9 171.536H18.028V174.608ZM24.4557 173.048H26.6157V173.84H26.7597C26.9117 173.512 27.1277 173.272 27.4077 173.12C27.6877 172.96 28.0077 172.88 28.3677 172.88C28.9677 172.88 29.4517 173.076 29.8197 173.468C30.1877 173.86 30.3837 174.432 30.4077 175.184L29.4237 175.328C29.4237 174.776 29.2917 174.38 29.0277 174.14C28.7637 173.892 28.4397 173.768 28.0557 173.768C27.8077 173.768 27.5917 173.816 27.4077 173.912C27.2317 174.008 27.0837 174.14 26.9637 174.308C26.8437 174.476 26.7557 174.672 26.6997 174.896C26.6437 175.12 26.6157 175.36 26.6157 175.616V178.136H28.1277V179H24.3117V178.136H25.6797V173.912H24.4557V173.048ZM34.3873 171.272C34.3873 171.04 34.4673 170.844 34.6273 170.684C34.7953 170.516 34.9953 170.432 35.2273 170.432C35.4593 170.432 35.6553 170.516 35.8153 170.684C35.9833 170.844 36.0673 171.04 36.0673 171.272C36.0673 171.504 35.9833 171.704 35.8153 171.872C35.6553 172.032 35.4593 172.112 35.2273 172.112C34.9953 172.112 34.7953 172.032 34.6273 171.872C34.4673 171.704 34.3873 171.504 34.3873 171.272ZM32.6833 178.136H34.7713V173.912H32.8993V173.048H35.7073V178.136H37.6513V179H32.6833V178.136ZM46.011 179H45.075V174.728C45.075 174.448 45.011 174.22 44.883 174.044C44.755 173.86 44.551 173.768 44.271 173.768C44.007 173.768 43.791 173.868 43.623 174.068C43.463 174.26 43.383 174.56 43.383 174.968V179H42.447V174.68C42.447 174.416 42.375 174.2 42.231 174.032C42.087 173.856 41.895 173.768 41.655 173.768C41.367 173.768 41.143 173.872 40.983 174.08C40.831 174.288 40.755 174.56 40.755 174.896V179H39.819V173.048H40.755V173.696H40.899C41.003 173.416 41.155 173.212 41.355 173.084C41.555 172.948 41.791 172.88 42.063 172.88C42.351 172.88 42.587 172.956 42.771 173.108C42.963 173.26 43.095 173.456 43.167 173.696H43.311C43.583 173.152 44.015 172.88 44.607 172.88C45.055 172.88 45.399 173.024 45.639 173.312C45.887 173.592 46.011 173.96 46.011 174.416V179ZM52.3546 177.992H52.2106C52.0186 178.392 51.7506 178.688 51.4066 178.88C51.0706 179.072 50.7146 179.168 50.3386 179.168C49.9466 179.168 49.5826 179.104 49.2466 178.976C48.9106 178.84 48.6146 178.644 48.3586 178.388C48.1106 178.124 47.9146 177.804 47.7706 177.428C47.6266 177.052 47.5546 176.616 47.5546 176.12V175.928C47.5546 175.44 47.6266 175.008 47.7706 174.632C47.9146 174.256 48.1106 173.94 48.3586 173.684C48.6146 173.42 48.9106 173.22 49.2466 173.084C49.5826 172.948 49.9386 172.88 50.3146 172.88C50.7226 172.88 51.0906 172.972 51.4186 173.156C51.7546 173.332 52.0186 173.608 52.2106 173.984H52.3546V173.048H53.2906V177.776C53.2906 178.016 53.3986 178.136 53.6146 178.136H53.9146V179H53.2786C53.0066 179 52.7826 178.912 52.6066 178.736C52.4386 178.56 52.3546 178.336 52.3546 178.064V177.992ZM50.4346 178.28C50.7146 178.28 50.9706 178.228 51.2026 178.124C51.4426 178.02 51.6466 177.872 51.8146 177.68C51.9826 177.488 52.1146 177.26 52.2106 176.996C52.3066 176.724 52.3546 176.424 52.3546 176.096V175.952C52.3546 175.632 52.3066 175.34 52.2106 175.076C52.1146 174.804 51.9786 174.572 51.8026 174.38C51.6346 174.188 51.4306 174.04 51.1906 173.936C50.9586 173.824 50.7066 173.768 50.4346 173.768C50.1546 173.768 49.8986 173.82 49.6666 173.924C49.4346 174.028 49.2306 174.176 49.0546 174.368C48.8866 174.552 48.7546 174.78 48.6586 175.052C48.5626 175.316 48.5146 175.608 48.5146 175.928V176.12C48.5146 176.8 48.6906 177.332 49.0426 177.716C49.4026 178.092 49.8666 178.28 50.4346 178.28ZM55.4463 173.048H57.6063V173.84H57.7503C57.9023 173.512 58.1183 173.272 58.3983 173.12C58.6783 172.96 58.9983 172.88 59.3583 172.88C59.9583 172.88 60.4423 173.076 60.8103 173.468C61.1783 173.86 61.3743 174.432 61.3983 175.184L60.4143 175.328C60.4143 174.776 60.2823 174.38 60.0183 174.14C59.7543 173.892 59.4303 173.768 59.0463 173.768C58.7983 173.768 58.5823 173.816 58.3983 173.912C58.2223 174.008 58.0743 174.14 57.9543 174.308C57.8343 174.476 57.7463 174.672 57.6903 174.896C57.6343 175.12 57.6063 175.36 57.6063 175.616V178.136H59.1183V179H55.3023V178.136H56.6703V173.912H55.4463V173.048ZM67.8499 177.92H67.7059C67.5139 178.304 67.2619 178.608 66.9499 178.832C66.6379 179.056 66.2419 179.168 65.7619 179.168C65.4339 179.168 65.1299 179.112 64.8499 179C64.5779 178.896 64.3419 178.736 64.1419 178.52C63.9499 178.304 63.7979 178.036 63.6859 177.716C63.5819 177.396 63.5299 177.024 63.5299 176.6V173.048H64.4659V176.48C64.4659 177.104 64.5939 177.56 64.8499 177.848C65.1059 178.136 65.4979 178.28 66.0259 178.28C66.5939 178.28 67.0379 178.088 67.3579 177.704C67.6859 177.312 67.8499 176.792 67.8499 176.144V173.048H68.7859V180.464C68.7859 180.736 68.6979 180.96 68.5219 181.136C68.3539 181.312 68.1339 181.4 67.8619 181.4H64.4659V180.536H67.5259C67.7419 180.536 67.8499 180.416 67.8499 180.176V177.92ZM81.7013 178.232C82.0453 178.232 82.3373 178.176 82.5773 178.064C82.8253 177.944 83.0253 177.788 83.1773 177.596C83.3373 177.396 83.4533 177.172 83.5253 176.924C83.6053 176.668 83.6453 176.4 83.6453 176.12V175.976H84.6533V176.12C84.6533 176.544 84.5893 176.944 84.4613 177.32C84.3333 177.688 84.1453 178.012 83.8973 178.292C83.6493 178.564 83.3413 178.78 82.9733 178.94C82.6053 179.092 82.1813 179.168 81.7013 179.168C80.7733 179.168 80.0493 178.876 79.5293 178.292C79.0093 177.708 78.7493 176.856 78.7493 175.736V173.864C78.7493 172.776 79.0093 171.932 79.5293 171.332C80.0493 170.732 80.7733 170.432 81.7013 170.432C82.1813 170.432 82.6053 170.512 82.9733 170.672C83.3413 170.824 83.6493 171.04 83.8973 171.32C84.1453 171.592 84.3333 171.916 84.4613 172.292C84.5893 172.66 84.6533 173.056 84.6533 173.48V173.624H83.6453V173.48C83.6373 173.208 83.5933 172.944 83.5133 172.688C83.4413 172.432 83.3253 172.208 83.1653 172.016C83.0133 171.816 82.8173 171.66 82.5773 171.548C82.3373 171.428 82.0453 171.368 81.7013 171.368C81.0533 171.368 80.5653 171.604 80.2373 172.076C79.9173 172.548 79.7573 173.168 79.7573 173.936V175.664C79.7573 176.488 79.9173 177.124 80.2373 177.572C80.5653 178.012 81.0533 178.232 81.7013 178.232ZM92.3889 176.096C92.3889 176.592 92.3049 177.032 92.1369 177.416C91.9769 177.792 91.7609 178.112 91.4889 178.376C91.2169 178.632 90.8969 178.828 90.5289 178.964C90.1689 179.1 89.7929 179.168 89.4009 179.168C89.0009 179.168 88.6209 179.1 88.2609 178.964C87.9009 178.828 87.5849 178.632 87.3129 178.376C87.0409 178.112 86.8209 177.792 86.6529 177.416C86.4929 177.032 86.4129 176.592 86.4129 176.096V175.952C86.4129 175.464 86.4929 175.032 86.6529 174.656C86.8209 174.272 87.0409 173.948 87.3129 173.684C87.5929 173.42 87.9129 173.22 88.2729 173.084C88.6329 172.948 89.0089 172.88 89.4009 172.88C89.7929 172.88 90.1689 172.948 90.5289 173.084C90.8889 173.22 91.2049 173.42 91.4769 173.684C91.7569 173.948 91.9769 174.272 92.1369 174.656C92.3049 175.032 92.3889 175.464 92.3889 175.952V176.096ZM89.4009 178.28C89.6889 178.28 89.9529 178.232 90.1929 178.136C90.4409 178.032 90.6569 177.884 90.8409 177.692C91.0249 177.5 91.1689 177.272 91.2729 177.008C91.3769 176.736 91.4289 176.432 91.4289 176.096V175.952C91.4289 175.632 91.3769 175.34 91.2729 175.076C91.1689 174.804 91.0249 174.572 90.8409 174.38C90.6569 174.188 90.4409 174.04 90.1929 173.936C89.9449 173.824 89.6809 173.768 89.4009 173.768C89.1209 173.768 88.8569 173.824 88.6089 173.936C88.3609 174.04 88.1449 174.188 87.9609 174.38C87.7769 174.572 87.6329 174.804 87.5289 175.076C87.4249 175.34 87.3729 175.632 87.3729 175.952V176.096C87.3729 176.432 87.4249 176.736 87.5289 177.008C87.6329 177.272 87.7769 177.5 87.9609 177.692C88.1449 177.884 88.3569 178.032 88.5969 178.136C88.8449 178.232 89.1129 178.28 89.4009 178.28ZM94.5206 178.136H96.6806V171.464H94.5926V170.6H97.6166V178.136H99.7766V179H94.5206V178.136ZM107.884 176.096C107.884 176.592 107.8 177.032 107.632 177.416C107.472 177.792 107.256 178.112 106.984 178.376C106.712 178.632 106.392 178.828 106.024 178.964C105.664 179.1 105.288 179.168 104.896 179.168C104.496 179.168 104.116 179.1 103.756 178.964C103.396 178.828 103.08 178.632 102.808 178.376C102.536 178.112 102.316 177.792 102.148 177.416C101.988 177.032 101.908 176.592 101.908 176.096V175.952C101.908 175.464 101.988 175.032 102.148 174.656C102.316 174.272 102.536 173.948 102.808 173.684C103.088 173.42 103.408 173.22 103.768 173.084C104.128 172.948 104.504 172.88 104.896 172.88C105.288 172.88 105.664 172.948 106.024 173.084C106.384 173.22 106.7 173.42 106.972 173.684C107.252 173.948 107.472 174.272 107.632 174.656C107.8 175.032 107.884 175.464 107.884 175.952V176.096ZM104.896 178.28C105.184 178.28 105.448 178.232 105.688 178.136C105.936 178.032 106.152 177.884 106.336 177.692C106.52 177.5 106.664 177.272 106.768 177.008C106.872 176.736 106.924 176.432 106.924 176.096V175.952C106.924 175.632 106.872 175.34 106.768 175.076C106.664 174.804 106.52 174.572 106.336 174.38C106.152 174.188 105.936 174.04 105.688 173.936C105.44 173.824 105.176 173.768 104.896 173.768C104.616 173.768 104.352 173.824 104.104 173.936C103.856 174.04 103.64 174.188 103.456 174.38C103.272 174.572 103.128 174.804 103.024 175.076C102.92 175.34 102.868 175.632 102.868 175.952V176.096C102.868 176.432 102.92 176.736 103.024 177.008C103.128 177.272 103.272 177.5 103.456 177.692C103.64 177.884 103.852 178.032 104.092 178.136C104.34 178.232 104.608 178.28 104.896 178.28ZM109.68 173.048H111.84V173.84H111.984C112.136 173.512 112.352 173.272 112.632 173.12C112.912 172.96 113.232 172.88 113.592 172.88C114.192 172.88 114.676 173.076 115.044 173.468C115.412 173.86 115.608 174.432 115.632 175.184L114.648 175.328C114.648 174.776 114.516 174.38 114.252 174.14C113.988 173.892 113.664 173.768 113.28 173.768C113.032 173.768 112.816 173.816 112.632 173.912C112.456 174.008 112.308 174.14 112.188 174.308C112.068 174.476 111.98 174.672 111.924 174.896C111.868 175.12 111.84 175.36 111.84 175.616V178.136H113.352V179H109.536V178.136H110.904V173.912H109.68V173.048Z" fill="#F3F3F8"/>
</svg>
