<svg width="60" height="60" viewBox="0 0 60 60" fill="none" xmlns="http://www.w3.org/2000/svg">
<circle cx="30" cy="30" r="30" fill="#212121"/>
<path d="M23 27L30 20L37 27" stroke="white" stroke-opacity="0.4" stroke-width="2" stroke-linecap="round" stroke-linejoin="round"/>
<path d="M19.72 35.6H25.624V36.536H23.176V44H22.168V36.536H19.72V35.6ZM33.0077 41.096C33.0077 41.592 32.9237 42.032 32.7557 42.416C32.5957 42.792 32.3797 43.112 32.1077 43.376C31.8357 43.632 31.5157 43.828 31.1477 43.964C30.7877 44.1 30.4117 44.168 30.0197 44.168C29.6197 44.168 29.2397 44.1 28.8797 43.964C28.5197 43.828 28.2037 43.632 27.9317 43.376C27.6597 43.112 27.4397 42.792 27.2717 42.416C27.1117 42.032 27.0317 41.592 27.0317 41.096V40.952C27.0317 40.464 27.1117 40.032 27.2717 39.656C27.4397 39.272 27.6597 38.948 27.9317 38.684C28.2117 38.42 28.5317 38.22 28.8917 38.084C29.2517 37.948 29.6277 37.88 30.0197 37.88C30.4117 37.88 30.7877 37.948 31.1477 38.084C31.5077 38.22 31.8237 38.42 32.0957 38.684C32.3757 38.948 32.5957 39.272 32.7557 39.656C32.9237 40.032 33.0077 40.464 33.0077 40.952V41.096ZM30.0197 43.28C30.3077 43.28 30.5717 43.232 30.8117 43.136C31.0597 43.032 31.2757 42.884 31.4597 42.692C31.6437 42.5 31.7877 42.272 31.8917 42.008C31.9957 41.736 32.0477 41.432 32.0477 41.096V40.952C32.0477 40.632 31.9957 40.34 31.8917 40.076C31.7877 39.804 31.6437 39.572 31.4597 39.38C31.2757 39.188 31.0597 39.04 30.8117 38.936C30.5637 38.824 30.2997 38.768 30.0197 38.768C29.7397 38.768 29.4757 38.824 29.2277 38.936C28.9797 39.04 28.7637 39.188 28.5797 39.38C28.3957 39.572 28.2517 39.804 28.1477 40.076C28.0437 40.34 27.9917 40.632 27.9917 40.952V41.096C27.9917 41.432 28.0437 41.736 28.1477 42.008C28.2517 42.272 28.3957 42.5 28.5797 42.692C28.7637 42.884 28.9757 43.032 29.2157 43.136C29.4637 43.232 29.7317 43.28 30.0197 43.28ZM35.4593 46.4H34.5233V38.048H35.4593V38.984H35.6033C35.8113 38.624 36.0993 38.352 36.4673 38.168C36.8353 37.976 37.2353 37.88 37.6673 37.88C38.0353 37.88 38.3833 37.948 38.7113 38.084C39.0393 38.22 39.3273 38.416 39.5753 38.672C39.8313 38.928 40.0313 39.244 40.1753 39.62C40.3273 39.996 40.4033 40.424 40.4033 40.904V41.144C40.4033 41.632 40.3313 42.064 40.1873 42.44C40.0433 42.816 39.8433 43.132 39.5873 43.388C39.3393 43.644 39.0473 43.84 38.7113 43.976C38.3753 44.104 38.0193 44.168 37.6433 44.168C37.4513 44.168 37.2553 44.144 37.0553 44.096C36.8553 44.056 36.6633 43.992 36.4793 43.904C36.3033 43.808 36.1393 43.696 35.9873 43.568C35.8353 43.432 35.7073 43.272 35.6033 43.088H35.4593V46.4ZM37.4513 43.28C37.7393 43.28 38.0033 43.232 38.2433 43.136C38.4833 43.032 38.6913 42.888 38.8673 42.704C39.0513 42.52 39.1913 42.296 39.2873 42.032C39.3913 41.768 39.4433 41.472 39.4433 41.144V40.904C39.4433 40.584 39.3913 40.296 39.2873 40.04C39.1913 39.776 39.0513 39.552 38.8673 39.368C38.6913 39.176 38.4793 39.028 38.2313 38.924C37.9913 38.82 37.7313 38.768 37.4513 38.768C37.1713 38.768 36.9113 38.824 36.6713 38.936C36.4313 39.04 36.2193 39.188 36.0353 39.38C35.8593 39.572 35.7193 39.804 35.6153 40.076C35.5113 40.34 35.4593 40.632 35.4593 40.952V41.096C35.4593 41.424 35.5113 41.724 35.6153 41.996C35.7193 42.26 35.8593 42.488 36.0353 42.68C36.2193 42.872 36.4313 43.02 36.6713 43.124C36.9113 43.228 37.1713 43.28 37.4513 43.28Z" fill="white" fill-opacity="0.4"/>
</svg>
