<svg width="300" height="64" viewBox="0 0 300 64" fill="none" xmlns="http://www.w3.org/2000/svg">
<path d="M33.344 18.904H30.272L28.864 12.696C28.6507 12.0133 28.416 11.5227 28.16 11.224C27.9467 10.8827 27.6267 10.584 27.2 10.328C26.7733 10.0293 26.0053 9.83733 24.896 9.752C23.8293 9.66666 22.6347 9.60266 21.312 9.56C19.9893 9.51733 18.0053 9.496 15.36 9.496H13.76V25.816H16.192C18.7093 25.816 20.3307 25.752 21.056 25.624C21.7813 25.4533 22.272 25.048 22.528 24.408L24 20.12H26.496L25.088 33.88H22.72L22.208 29.784C22.1227 29.144 21.7173 28.7387 20.992 28.568C20.3093 28.3547 18.6667 28.248 16.064 28.248H13.76V43.416C13.76 43.928 14.5067 44.2693 16 44.44L19.904 44.76L20.096 47H2.624L2.816 44.76L5.44 44.44C6.93333 44.2693 7.68 43.8853 7.68 43.288V10.584C7.68 10.2853 7.53067 10.072 7.232 9.944C6.976 9.816 6.37867 9.688 5.44 9.56L2.816 9.24L2.624 7H33.344V18.904ZM56.0755 18.392C56.7582 19.032 57.0995 19.8853 57.0995 20.952C57.0995 22.0187 56.8008 22.8933 56.2035 23.576C55.6488 24.216 54.8382 24.536 53.7715 24.536C52.4915 24.536 51.4035 23.832 50.5075 22.424C47.8622 23.96 45.7715 26.2427 44.2355 29.272V43.416C44.2355 44.0987 45.0462 44.4827 46.6675 44.568L49.1635 44.76L49.3555 47H34.8275L35.0195 44.76L36.8115 44.568C38.2622 44.44 38.9875 44.0347 38.9875 43.352V27.16C38.9875 25.1973 38.8168 23.9173 38.4755 23.32C38.1768 22.7227 37.4302 22.2747 36.2355 21.976L34.6995 21.592L34.7635 19.864L44.2355 17.368V25.56H44.5555C46.3902 22.5733 47.9262 20.4613 49.1635 19.224C50.4435 17.9867 51.8088 17.368 53.2595 17.368C54.4542 17.368 55.3928 17.7093 56.0755 18.392ZM82.8125 40.664C81.6178 43.0107 79.9965 44.824 77.9485 46.104C75.9432 47.3413 73.6818 47.96 71.1645 47.96C67.4098 47.96 64.3165 46.5947 61.8845 43.864C59.4952 41.0907 58.3005 37.6773 58.3005 33.624C58.3005 28.9307 59.7298 25.048 62.5885 21.976C65.4898 18.904 69.0312 17.368 73.2125 17.368C76.2418 17.368 78.6525 18.2427 80.4445 19.992C82.2792 21.7413 83.1965 24.0667 83.1965 26.968C83.1965 28.248 83.0685 29.4 82.8125 30.424L63.8045 30.168V30.872C63.8045 34.5413 64.7432 37.5493 66.6205 39.896C68.4978 42.2 70.8658 43.352 73.7245 43.352C76.9245 43.352 79.5272 42.2213 81.5325 39.96L82.8125 40.664ZM77.3085 28.12C77.4792 25.56 77.0525 23.5333 76.0285 22.04C75.0045 20.504 73.5965 19.736 71.8045 19.736C69.9698 19.736 68.3058 20.504 66.8125 22.04C65.3192 23.5333 64.3805 25.56 63.9965 28.12H77.3085ZM95.0965 5.4C95.6938 6.12533 95.9925 7.02133 95.9925 8.088C95.9925 9.15467 95.6938 10.0507 95.0965 10.776C94.4992 11.5013 93.6458 11.864 92.5365 11.864C91.4272 11.864 90.5738 11.5013 89.9765 10.776C89.3792 10.0507 89.0805 9.15467 89.0805 8.088C89.0805 7.02133 89.3792 6.12533 89.9765 5.4C90.5738 4.67466 91.4272 4.312 92.5365 4.312C93.6458 4.312 94.4992 4.67466 95.0965 5.4ZM100.281 47H86.3925L86.5845 44.76L88.3765 44.568C89.8272 44.44 90.5525 44.0347 90.5525 43.352V27.16C90.5525 25.1973 90.3818 23.9173 90.0405 23.32C89.7418 22.7227 88.9952 22.2747 87.8005 21.976L86.2645 21.592L86.3285 19.864L95.8005 17.368V43.416C95.8005 44.0987 96.6112 44.4827 98.2325 44.568L100.089 44.76L100.281 47ZM131.03 23.128L124.054 21.912V22.296C125.249 23.8747 125.846 25.6453 125.846 27.608C125.846 30.424 124.737 32.8347 122.518 34.84C120.299 36.8453 117.633 37.848 114.518 37.848C113.153 37.848 111.873 37.6987 110.678 37.4C110.038 37.6987 109.419 38.1467 108.822 38.744C108.225 39.2987 107.926 39.8533 107.926 40.408C107.926 41.2613 108.31 41.9867 109.078 42.584C109.889 43.1387 110.87 43.416 112.022 43.416C113.046 43.416 114.411 43.3947 116.118 43.352C117.825 43.2667 118.977 43.224 119.574 43.224C122.177 43.224 124.374 44.056 126.166 45.72C128.001 47.384 128.918 49.4107 128.918 51.8C128.918 55.1707 127.361 57.9227 124.246 60.056C121.174 62.232 117.227 63.32 112.406 63.32C109.035 63.32 106.326 62.6373 104.278 61.272C102.273 59.9067 101.27 58.0933 101.27 55.832C101.27 52.5467 103.339 50.0507 107.478 48.344V48.088C106.241 47.8747 105.195 47.2987 104.342 46.36C103.531 45.3787 103.126 44.3547 103.126 43.288C103.126 42.0507 103.617 40.8773 104.598 39.768C105.579 38.616 106.838 37.6987 108.374 37.016C108.374 36.8453 108.459 36.7387 108.63 36.696C105.003 34.9893 103.19 32.0453 103.19 27.864C103.19 24.8773 104.278 22.3813 106.454 20.376C108.673 18.3707 111.403 17.368 114.646 17.368C117.249 17.368 119.809 17.9653 122.326 19.16H131.03V23.128ZM120.534 27.8C120.534 24.8133 119.809 22.5947 118.358 21.144C117.291 20.0773 116.054 19.544 114.646 19.544C112.897 19.544 111.446 20.2267 110.294 21.592C109.185 22.9573 108.63 24.7067 108.63 26.84C108.63 30.04 109.505 32.5147 111.254 34.264C112.193 35.2027 113.281 35.672 114.518 35.672C116.267 35.672 117.611 35.2027 118.55 34.264C119.873 32.984 120.534 30.8293 120.534 27.8ZM124.054 54.232C124.054 50.5627 121.814 48.6427 117.334 48.472C116.438 48.4293 115.201 48.4293 113.622 48.472C112.043 48.5573 110.849 48.6 110.038 48.6C109.227 48.8987 108.374 49.5387 107.478 50.52C106.625 51.544 106.198 52.7387 106.198 54.104C106.198 56.152 107.03 57.7947 108.694 59.032C110.401 60.2693 112.619 60.888 115.35 60.888C117.953 60.888 120.043 60.248 121.622 58.968C123.243 57.7307 124.054 56.152 124.054 54.232ZM162.693 47H148.933L149.125 44.76L150.789 44.568C152.239 44.4827 152.965 44.0773 152.965 43.352V29.976C152.965 26.9467 152.474 24.8347 151.493 23.64C150.554 22.4027 149.082 21.784 147.077 21.784C144.773 21.784 142.405 22.68 139.973 24.472V43.416C139.973 44.0987 140.783 44.4827 142.405 44.568L144.581 44.76L144.773 47H130.565L130.757 44.76L132.549 44.568C133.999 44.44 134.725 44.0347 134.725 43.352V10.008C134.725 9.19733 134.49 8.70667 134.021 8.536L129.733 6.744L129.925 5.144L139.973 2.392V21.912H140.293C143.962 18.8827 147.375 17.368 150.533 17.368C152.709 17.368 154.458 18.0293 155.781 19.352C157.402 20.9733 158.213 23.3627 158.213 26.52V43.352C158.213 43.6933 158.383 43.9493 158.725 44.12C159.066 44.2907 159.77 44.44 160.837 44.568L162.501 44.76L162.693 47ZM183.765 43.8C182.613 45.08 181.226 46.104 179.605 46.872C178.026 47.5973 176.49 47.96 174.997 47.96C172.693 47.96 170.837 47.2347 169.429 45.784C168.063 44.2907 167.402 42.008 167.445 38.936L167.893 21.72L162.709 21.4L162.773 19.48L166.933 16.024L171.093 12.504L173.141 12.888L173.077 18.328H183.573L183.125 21.528H173.141L172.629 37.528C172.501 41.7093 174.335 43.8 178.133 43.8C179.754 43.8 181.525 43.2667 183.445 42.2L183.765 43.8ZM221.041 19.544H217.969L216.497 13.336C216.198 12.2693 215.836 11.5227 215.409 11.096C215.025 10.6267 214.15 10.264 212.785 10.008C211.462 9.70933 209.414 9.53866 206.641 9.496H206.513V43.416C206.513 43.928 207.26 44.2693 208.753 44.44L212.593 44.76L212.785 47H194.161L194.353 44.76L198.193 44.44C199.686 44.2693 200.433 43.8853 200.433 43.288V9.496H200.305C196.294 9.496 193.713 9.688 192.561 10.072C191.409 10.4133 190.62 11.288 190.193 12.696L188.401 19.544H185.201L186.289 7H221.041V19.544ZM245.382 40.664C244.188 43.0107 242.566 44.824 240.518 46.104C238.513 47.3413 236.252 47.96 233.734 47.96C229.98 47.96 226.886 46.5947 224.454 43.864C222.065 41.0907 220.87 37.6773 220.87 33.624C220.87 28.9307 222.3 25.048 225.158 21.976C228.06 18.904 231.601 17.368 235.782 17.368C238.812 17.368 241.222 18.2427 243.014 19.992C244.849 21.7413 245.766 24.0667 245.766 26.968C245.766 28.248 245.638 29.4 245.382 30.424L226.374 30.168V30.872C226.374 34.5413 227.313 37.5493 229.19 39.896C231.068 42.2 233.436 43.352 236.294 43.352C239.494 43.352 242.097 42.2213 244.102 39.96L245.382 40.664ZM239.878 28.12C240.049 25.56 239.622 23.5333 238.598 22.04C237.574 20.504 236.166 19.736 234.374 19.736C232.54 19.736 230.876 20.504 229.382 22.04C227.889 23.5333 226.95 25.56 226.566 28.12H239.878ZM277.89 47H264.066L264.258 44.824L265.538 44.44C266.52 44.2267 267.032 43.8853 267.074 43.416C267.117 42.904 266.669 42.008 265.73 40.728L261.506 34.84H261.442L257.026 40.728C256.301 41.6667 255.832 42.392 255.618 42.904C255.405 43.3733 255.405 43.736 255.618 43.992C255.832 44.248 256.322 44.4187 257.09 44.504L258.754 44.824L258.946 47H246.658L246.85 44.824L248.706 44.44C249.602 44.312 250.37 43.992 251.01 43.48C251.65 42.968 252.674 41.88 254.082 40.216L259.97 33.048L253.954 25.112C252.76 23.5333 251.842 22.488 251.202 21.976C250.562 21.464 249.752 21.1227 248.77 20.952L247.362 20.568L247.17 18.328H261.122L260.93 20.504L259.65 20.888C258.669 21.0587 258.178 21.4 258.178 21.912C258.221 22.3813 258.733 23.2773 259.714 24.6L263.17 29.464H263.234L266.882 24.6C267.565 23.704 268.013 23.0213 268.226 22.552C268.44 22.04 268.44 21.656 268.226 21.4C268.013 21.1013 267.544 20.9093 266.818 20.824L265.154 20.504L264.962 18.328H277.442L277.25 20.504L275.394 20.888C274.37 21.016 273.538 21.336 272.898 21.848C272.258 22.36 271.234 23.448 269.826 25.112L264.77 31.256L271.426 40.216C272.578 41.752 273.474 42.7973 274.114 43.352C274.797 43.864 275.565 44.2053 276.418 44.376L277.698 44.76L277.89 47ZM298.207 43.8C297.055 45.08 295.668 46.104 294.047 46.872C292.468 47.5973 290.932 47.96 289.439 47.96C287.135 47.96 285.279 47.2347 283.871 45.784C282.506 44.2907 281.844 42.008 281.887 38.936L282.335 21.72L277.151 21.4L277.215 19.48L281.375 16.024L285.535 12.504L287.583 12.888L287.519 18.328H298.015L297.567 21.528H287.583L287.071 37.528C286.943 41.7093 288.778 43.8 292.575 43.8C294.196 43.8 295.967 43.2667 297.887 42.2L298.207 43.8Z" fill="#CCCCCC"/>
</svg>
