<svg width="32" height="32" viewBox="0 0 32 32" fill="none" xmlns="http://www.w3.org/2000/svg">
<g opacity="0.8">
<path d="M28 2.66602L25.3333 5.33268M25.3333 5.33268L29.3333 9.33268L24.6667 13.9993L20.6667 9.99935M25.3333 5.33268L20.6667 9.99935M15.1867 15.4793C15.8751 16.1586 16.4224 16.9674 16.797 17.8591C17.1716 18.7507 17.3661 19.7077 17.3694 20.6749C17.3726 21.642 17.1845 22.6003 16.8159 23.4944C16.4473 24.3886 15.9054 25.201 15.2215 25.8849C14.5376 26.5688 13.7252 27.1106 12.8311 27.4792C11.9369 27.8479 10.9787 28.036 10.0115 28.0327C9.04435 28.0295 8.08739 27.835 7.19572 27.4604C6.30405 27.0858 5.49529 26.5385 4.816 25.85C3.48017 24.4669 2.74102 22.6145 2.75772 20.6917C2.77443 18.769 3.54567 16.9297 4.90533 15.57C6.26499 14.2104 8.10428 13.4391 10.0271 13.4224C11.9498 13.4057 13.8022 14.1449 15.1853 15.4807L15.1867 15.4793ZM15.1867 15.4793L20.6667 9.99935" stroke="#212121" stroke-opacity="0.9" stroke-width="2" stroke-linecap="round" stroke-linejoin="round"/>
</g>
</svg>
