<svg width="84" height="84" viewBox="0 0 84 84" fill="none" xmlns="http://www.w3.org/2000/svg">
<g clip-path="url(#clip0)">
<circle cx="42.489" cy="42.3217" r="23.0341" transform="rotate(120 42.489 42.3217)" fill="black"/>
<path d="M25.9262 15.4778C26.2024 14.9996 26.8139 14.8357 27.2922 15.1118L76.2225 43.3617C76.7008 43.6379 76.8647 44.2495 76.5886 44.7278L70.3245 55.5774C67.5945 60.3059 64.6369 63.1861 61.4518 64.218C58.2844 65.3165 54.5054 64.5982 50.1147 62.0632C49.5236 61.722 48.9536 61.3929 48.4048 61.0761C47.8559 60.7592 47.3193 60.4212 46.7948 60.0621C44.5703 58.5526 43.0385 56.9646 42.1994 55.298C41.4502 53.8101 41.2105 52.1005 41.4802 50.169C41.5394 49.7452 41.3504 49.3194 40.9798 49.1054L40.7081 48.9486C40.3333 48.7322 39.8642 48.7851 39.5266 49.0559C37.9415 50.3275 36.296 51.0001 34.5902 51.0737C32.6607 51.1981 30.4895 50.6201 28.0765 49.3395C26.7856 48.6505 25.4768 47.8949 24.1502 47.0727C19.857 44.3688 17.3487 41.4008 16.6254 38.1686C15.9199 35.003 16.9322 31.056 19.6622 26.3275L25.9262 15.4778ZM51.762 41.905C51.2837 41.6289 50.6721 41.7928 50.396 42.271L49.6163 43.6215C48.8363 44.9725 48.6946 46.2417 49.1912 47.4291C49.7056 48.683 50.8072 49.7975 52.4959 50.7725L56.1056 52.8566C58.4277 54.1972 60.3809 53.4954 61.9652 50.7512L62.7449 49.4007C63.0211 48.9224 62.8572 48.3108 62.3789 48.0347L51.762 41.905ZM30.1672 29.4372C29.6889 29.1611 29.0773 29.325 28.8011 29.8033L28.0215 31.1537C26.4371 33.8979 27.017 36.0622 29.7612 37.6466L33.1176 39.5844C35.2285 40.8031 36.889 41.3396 38.099 41.1939C39.3512 41.0724 40.4039 40.2729 41.257 38.7953L42.0367 37.4448C42.3128 36.9665 42.1489 36.3549 41.6706 36.0788L30.1672 29.4372Z" fill="white"/>
</g>
<defs>
<clipPath id="clip0">
<rect width="61.1885" height="60.0681" fill="white" transform="translate(30.1532 0.519226) rotate(30)"/>
</clipPath>
</defs>
</svg>
